<svg xmlns="http://www.w3.org/2000/svg" viewBox="-32 -32 1064 1064" width="2.128in" height="2.128in">
<defs>
  <linearGradient id="g" x1="0" y1="0" x2="1" y2="0">
    <stop offset="0" stop-color="#8B5CF6"/><stop offset="1" stop-color="#22D3EE"/></linearGradient>
  <radialGradient id="bg" cx=".5" cy=".28" r=".75">
    <stop offset="0" stop-color="#2A1B5E"/><stop offset=".6" stop-color="#110E24"/><stop offset="1" stop-color="#0B0A18"/></radialGradient>
</defs>
<rect x="-32" y="-32" width="1064" height="1064" fill="url(#bg)"/>
<rect x="36" y="36" width="928" height="928" rx="54" fill="none" stroke="#22D3EE" stroke-opacity=".35" stroke-width="8"/>
<g transform="translate(356.0 64)"><defs><filter id="stk-glow" x="-50%" y="-50%" width="200%" height="200%"><feGaussianBlur stdDeviation="10.8"/></filter></defs><g class="sr-body"><rect x="84" y="12" width="24" height="12" fill="#8F91AB"/><rect x="84" y="24" width="24" height="12" fill="#8F91AB"/><rect x="24" y="36" width="144" height="12" fill="#14122B"/><rect x="192" y="36" width="48" height="12" fill="#FFC23D"/><rect x="24" y="48" width="12" height="12" fill="#14122B"/><rect x="36" y="48" width="108" height="12" fill="#D4D5E6"/><rect x="144" y="48" width="12" height="12" fill="#8F91AB"/><rect x="156" y="48" width="12" height="12" fill="#14122B"/><rect x="180" y="48" width="72" height="12" fill="#FFC23D"/><rect x="24" y="60" width="12" height="12" fill="#14122B"/><rect x="36" y="60" width="12" height="12" fill="#D4D5E6"/><rect x="48" y="60" width="96" height="12" fill="#0B0A18"/><rect x="144" y="60" width="12" height="12" fill="#8F91AB"/><rect x="156" y="60" width="12" height="12" fill="#14122B"/><rect x="180" y="60" width="12" height="12" fill="#FFC23D"/><rect x="192" y="60" width="12" height="12" fill="#14122B"/><rect x="204" y="60" width="24" height="12" fill="#FFC23D"/><rect x="228" y="60" width="12" height="12" fill="#14122B"/><rect x="240" y="60" width="12" height="12" fill="#FFC23D"/><rect x="12" y="72" width="12" height="12" fill="#8F91AB"/><rect x="24" y="72" width="12" height="12" fill="#14122B"/><rect x="36" y="72" width="12" height="12" fill="#D4D5E6"/><rect x="48" y="72" width="12" height="12" fill="#0B0A18"/><rect x="84" y="72" width="24" height="12" fill="#0B0A18"/><rect x="132" y="72" width="12" height="12" fill="#0B0A18"/><rect x="144" y="72" width="12" height="12" fill="#8F91AB"/><rect x="156" y="72" width="12" height="12" fill="#14122B"/><rect x="168" y="72" width="12" height="12" fill="#8F91AB"/><rect x="180" y="72" width="72" height="12" fill="#FFC23D"/><rect x="252" y="72" width="24" height="12" fill="#8B5CF6"/><rect x="12" y="84" width="12" height="12" fill="#8F91AB"/><rect x="24" y="84" width="12" height="12" fill="#14122B"/><rect x="36" y="84" width="12" height="12" fill="#D4D5E6"/><rect x="48" y="84" width="12" height="12" fill="#0B0A18"/><rect x="84" y="84" width="24" height="12" fill="#0B0A18"/><rect x="132" y="84" width="12" height="12" fill="#0B0A18"/><rect x="144" y="84" width="12" height="12" fill="#8F91AB"/><rect x="156" y="84" width="12" height="12" fill="#14122B"/><rect x="168" y="84" width="12" height="12" fill="#8F91AB"/><rect x="180" y="84" width="12" height="12" fill="#14122B"/><rect x="192" y="84" width="48" height="12" fill="#FFC23D"/><rect x="240" y="84" width="12" height="12" fill="#14122B"/><rect x="252" y="84" width="36" height="12" fill="#8B5CF6"/><rect x="24" y="96" width="12" height="12" fill="#14122B"/><rect x="36" y="96" width="12" height="12" fill="#D4D5E6"/><rect x="48" y="96" width="96" height="12" fill="#0B0A18"/><rect x="144" y="96" width="12" height="12" fill="#8F91AB"/><rect x="156" y="96" width="12" height="12" fill="#14122B"/><rect x="180" y="96" width="12" height="12" fill="#FFC23D"/><rect x="192" y="96" width="48" height="12" fill="#14122B"/><rect x="240" y="96" width="12" height="12" fill="#FFC23D"/><rect x="252" y="96" width="12" height="12" fill="#8B5CF6"/><rect x="264" y="96" width="12" height="12" fill="#14122B"/><rect x="276" y="96" width="12" height="12" fill="#8B5CF6"/><rect x="24" y="108" width="12" height="12" fill="#14122B"/><rect x="36" y="108" width="108" height="12" fill="#D4D5E6"/><rect x="144" y="108" width="12" height="12" fill="#8F91AB"/><rect x="156" y="108" width="12" height="12" fill="#14122B"/><rect x="192" y="108" width="48" height="12" fill="#FFC23D"/><rect x="240" y="108" width="48" height="12" fill="#8B5CF6"/><rect x="24" y="120" width="12" height="12" fill="#14122B"/><rect x="36" y="120" width="24" height="12" fill="#D4D5E6"/><rect x="60" y="120" width="12" height="12" fill="#14122B"/><rect x="72" y="120" width="12" height="12" fill="#D4D5E6"/><rect x="84" y="120" width="12" height="12" fill="#14122B"/><rect x="96" y="120" width="12" height="12" fill="#D4D5E6"/><rect x="108" y="120" width="12" height="12" fill="#14122B"/><rect x="120" y="120" width="24" height="12" fill="#D4D5E6"/><rect x="144" y="120" width="12" height="12" fill="#8F91AB"/><rect x="156" y="120" width="12" height="12" fill="#14122B"/><rect x="180" y="120" width="24" height="12" fill="#D4D5E6"/><rect x="216" y="120" width="24" height="12" fill="#8B5CF6"/><rect x="240" y="120" width="24" height="12" fill="#14122B"/><rect x="264" y="120" width="24" height="12" fill="#8B5CF6"/><rect x="24" y="132" width="12" height="12" fill="#14122B"/><rect x="36" y="132" width="120" height="12" fill="#8F91AB"/><rect x="156" y="132" width="12" height="12" fill="#14122B"/><rect x="180" y="132" width="24" height="12" fill="#8F91AB"/><rect x="216" y="132" width="12" height="12" fill="#8B5CF6"/><rect x="228" y="132" width="12" height="12" fill="#14122B"/><rect x="240" y="132" width="24" height="12" fill="#8B5CF6"/><rect x="264" y="132" width="12" height="12" fill="#14122B"/><rect x="276" y="132" width="12" height="12" fill="#8B5CF6"/><rect x="24" y="144" width="144" height="12" fill="#14122B"/><rect x="180" y="144" width="24" height="12" fill="#8F91AB"/><rect x="228" y="144" width="48" height="12" fill="#8B5CF6"/><rect x="72" y="156" width="48" height="12" fill="#8F91AB"/><rect x="180" y="156" width="24" height="12" fill="#8F91AB"/><rect x="12" y="168" width="168" height="12" fill="#14122B"/><rect x="180" y="168" width="24" height="12" fill="#8F91AB"/><rect x="0" y="180" width="12" height="12" fill="#8F91AB"/><rect x="12" y="180" width="12" height="12" fill="#14122B"/><rect x="24" y="180" width="132" height="12" fill="#D4D5E6"/><rect x="156" y="180" width="12" height="12" fill="#8F91AB"/><rect x="168" y="180" width="12" height="12" fill="#14122B"/><rect x="180" y="180" width="12" height="12" fill="#8F91AB"/><rect x="0" y="192" width="12" height="12" fill="#8F91AB"/><rect x="12" y="192" width="12" height="12" fill="#14122B"/><rect x="24" y="192" width="12" height="12" fill="#D4D5E6"/><rect x="36" y="192" width="72" height="12" fill="#0B0A18"/><rect x="108" y="192" width="48" height="12" fill="#D4D5E6"/><rect x="156" y="192" width="12" height="12" fill="#8F91AB"/><rect x="168" y="192" width="12" height="12" fill="#14122B"/><rect x="0" y="204" width="12" height="12" fill="#8F91AB"/><rect x="12" y="204" width="12" height="12" fill="#14122B"/><rect x="24" y="204" width="12" height="12" fill="#D4D5E6"/><rect x="36" y="204" width="12" height="12" fill="#0B0A18"/><rect x="48" y="204" width="12" height="12" fill="#22D3EE"/><rect x="60" y="204" width="12" height="12" fill="#0B0A18"/><rect x="72" y="204" width="12" height="12" fill="#8B5CF6"/><rect x="84" y="204" width="12" height="12" fill="#0B0A18"/><rect x="96" y="204" width="12" height="12" fill="#22D3EE"/><rect x="108" y="204" width="12" height="12" fill="#D4D5E6"/><rect x="144" y="204" width="12" height="12" fill="#D4D5E6"/><rect x="156" y="204" width="12" height="12" fill="#8F91AB"/><rect x="168" y="204" width="12" height="12" fill="#14122B"/><rect x="0" y="216" width="12" height="12" fill="#8F91AB"/><rect x="12" y="216" width="12" height="12" fill="#14122B"/><rect x="24" y="216" width="12" height="12" fill="#D4D5E6"/><rect x="36" y="216" width="72" height="12" fill="#0B0A18"/><rect x="108" y="216" width="12" height="12" fill="#D4D5E6"/><rect x="144" y="216" width="12" height="12" fill="#D4D5E6"/><rect x="156" y="216" width="12" height="12" fill="#8F91AB"/><rect x="168" y="216" width="12" height="12" fill="#14122B"/><rect x="12" y="228" width="12" height="12" fill="#14122B"/><rect x="24" y="228" width="132" height="12" fill="#D4D5E6"/><rect x="156" y="228" width="12" height="12" fill="#8F91AB"/><rect x="168" y="228" width="12" height="12" fill="#14122B"/><rect x="12" y="240" width="12" height="12" fill="#14122B"/><rect x="24" y="240" width="144" height="12" fill="#8F91AB"/><rect x="168" y="240" width="12" height="12" fill="#14122B"/><rect x="12" y="252" width="168" height="12" fill="#14122B"/><rect x="36" y="264" width="36" height="12" fill="#8F91AB"/><rect x="120" y="264" width="36" height="12" fill="#8F91AB"/><rect x="24" y="276" width="48" height="12" fill="#14122B"/><rect x="108" y="276" width="48" height="12" fill="#14122B"/></g><g class="sr-bulb"><rect x="84" y="0" width="24" height="12" fill="#FF1E3C"/><rect x="120" y="204" width="24" height="12" fill="#FF1E3C"/><rect x="120" y="216" width="24" height="12" fill="#FF1E3C"/></g><g class="sr-eyes-wrap"><g class="sr-glow" filter="url(#stk-glow)" opacity=".85"><rect x="60" y="72" width="12" height="12" fill="#FF1E3C"/><rect x="72" y="72" width="12" height="12" fill="#FF1E3C"/><rect x="108" y="72" width="12" height="12" fill="#FF1E3C"/><rect x="120" y="72" width="12" height="12" fill="#FF1E3C"/><rect x="60" y="84" width="24" height="12" fill="#FF1E3C"/><rect x="108" y="84" width="24" height="12" fill="#FF1E3C"/></g><g class="sr-eyes"><rect x="60" y="72" width="12" height="12" fill="#FF9AA8"/><rect x="72" y="72" width="12" height="12" fill="#FF1E3C"/><rect x="108" y="72" width="12" height="12" fill="#FF9AA8"/><rect x="120" y="72" width="12" height="12" fill="#FF1E3C"/><rect x="60" y="84" width="24" height="12" fill="#FF1E3C"/><rect x="108" y="84" width="24" height="12" fill="#FF1E3C"/></g></g></g><g shape-rendering="crispEdges"><rect x="234.5" y="396" width="36" height="9" fill="#C9C7E0"/><rect x="234.5" y="405" width="9" height="9" fill="#C9C7E0"/><rect x="270.5" y="405" width="9" height="9" fill="#C9C7E0"/><rect x="234.5" y="414" width="9" height="9" fill="#C9C7E0"/><rect x="270.5" y="414" width="9" height="9" fill="#C9C7E0"/><rect x="234.5" y="423" width="36" height="9" fill="#C9C7E0"/><rect x="234.5" y="432" width="9" height="9" fill="#C9C7E0"/><rect x="234.5" y="441" width="9" height="9" fill="#C9C7E0"/><rect x="234.5" y="450" width="9" height="9" fill="#C9C7E0"/><rect x="297.5" y="396" width="27" height="9" fill="#C9C7E0"/><rect x="288.5" y="405" width="9" height="9" fill="#C9C7E0"/><rect x="324.5" y="405" width="9" height="9" fill="#C9C7E0"/><rect x="288.5" y="414" width="9" height="9" fill="#C9C7E0"/><rect x="324.5" y="414" width="9" height="9" fill="#C9C7E0"/><rect x="288.5" y="423" width="9" height="9" fill="#C9C7E0"/><rect x="324.5" y="423" width="9" height="9" fill="#C9C7E0"/><rect x="288.5" y="432" width="9" height="9" fill="#C9C7E0"/><rect x="324.5" y="432" width="9" height="9" fill="#C9C7E0"/><rect x="288.5" y="441" width="9" height="9" fill="#C9C7E0"/><rect x="324.5" y="441" width="9" height="9" fill="#C9C7E0"/><rect x="297.5" y="450" width="27" height="9" fill="#C9C7E0"/><rect x="342.5" y="396" width="9" height="9" fill="#C9C7E0"/><rect x="378.5" y="396" width="9" height="9" fill="#C9C7E0"/><rect x="342.5" y="405" width="9" height="9" fill="#C9C7E0"/><rect x="378.5" y="405" width="9" height="9" fill="#C9C7E0"/><rect x="342.5" y="414" width="9" height="9" fill="#C9C7E0"/><rect x="378.5" y="414" width="9" height="9" fill="#C9C7E0"/><rect x="342.5" y="423" width="9" height="9" fill="#C9C7E0"/><rect x="360.5" y="423" width="9" height="9" fill="#C9C7E0"/><rect x="378.5" y="423" width="9" height="9" fill="#C9C7E0"/><rect x="342.5" y="432" width="9" height="9" fill="#C9C7E0"/><rect x="360.5" y="432" width="9" height="9" fill="#C9C7E0"/><rect x="378.5" y="432" width="9" height="9" fill="#C9C7E0"/><rect x="342.5" y="441" width="18" height="9" fill="#C9C7E0"/><rect x="369.5" y="441" width="18" height="9" fill="#C9C7E0"/><rect x="342.5" y="450" width="9" height="9" fill="#C9C7E0"/><rect x="378.5" y="450" width="9" height="9" fill="#C9C7E0"/><rect x="396.5" y="396" width="45" height="9" fill="#C9C7E0"/><rect x="396.5" y="405" width="9" height="9" fill="#C9C7E0"/><rect x="396.5" y="414" width="9" height="9" fill="#C9C7E0"/><rect x="396.5" y="423" width="36" height="9" fill="#C9C7E0"/><rect x="396.5" y="432" width="9" height="9" fill="#C9C7E0"/><rect x="396.5" y="441" width="9" height="9" fill="#C9C7E0"/><rect x="396.5" y="450" width="45" height="9" fill="#C9C7E0"/><rect x="450.5" y="396" width="36" height="9" fill="#C9C7E0"/><rect x="450.5" y="405" width="9" height="9" fill="#C9C7E0"/><rect x="486.5" y="405" width="9" height="9" fill="#C9C7E0"/><rect x="450.5" y="414" width="9" height="9" fill="#C9C7E0"/><rect x="486.5" y="414" width="9" height="9" fill="#C9C7E0"/><rect x="450.5" y="423" width="36" height="9" fill="#C9C7E0"/><rect x="450.5" y="432" width="9" height="9" fill="#C9C7E0"/><rect x="468.5" y="432" width="9" height="9" fill="#C9C7E0"/><rect x="450.5" y="441" width="9" height="9" fill="#C9C7E0"/><rect x="477.5" y="441" width="9" height="9" fill="#C9C7E0"/><rect x="450.5" y="450" width="9" height="9" fill="#C9C7E0"/><rect x="486.5" y="450" width="9" height="9" fill="#C9C7E0"/><rect x="504.5" y="396" width="45" height="9" fill="#C9C7E0"/><rect x="504.5" y="405" width="9" height="9" fill="#C9C7E0"/><rect x="504.5" y="414" width="9" height="9" fill="#C9C7E0"/><rect x="504.5" y="423" width="36" height="9" fill="#C9C7E0"/><rect x="504.5" y="432" width="9" height="9" fill="#C9C7E0"/><rect x="504.5" y="441" width="9" height="9" fill="#C9C7E0"/><rect x="504.5" y="450" width="45" height="9" fill="#C9C7E0"/><rect x="558.5" y="396" width="36" height="9" fill="#C9C7E0"/><rect x="558.5" y="405" width="9" height="9" fill="#C9C7E0"/><rect x="594.5" y="405" width="9" height="9" fill="#C9C7E0"/><rect x="558.5" y="414" width="9" height="9" fill="#C9C7E0"/><rect x="594.5" y="414" width="9" height="9" fill="#C9C7E0"/><rect x="558.5" y="423" width="9" height="9" fill="#C9C7E0"/><rect x="594.5" y="423" width="9" height="9" fill="#C9C7E0"/><rect x="558.5" y="432" width="9" height="9" fill="#C9C7E0"/><rect x="594.5" y="432" width="9" height="9" fill="#C9C7E0"/><rect x="558.5" y="441" width="9" height="9" fill="#C9C7E0"/><rect x="594.5" y="441" width="9" height="9" fill="#C9C7E0"/><rect x="558.5" y="450" width="36" height="9" fill="#C9C7E0"/><rect x="666.5" y="396" width="36" height="9" fill="#C9C7E0"/><rect x="666.5" y="405" width="9" height="9" fill="#C9C7E0"/><rect x="702.5" y="405" width="9" height="9" fill="#C9C7E0"/><rect x="666.5" y="414" width="9" height="9" fill="#C9C7E0"/><rect x="702.5" y="414" width="9" height="9" fill="#C9C7E0"/><rect x="666.5" y="423" width="36" height="9" fill="#C9C7E0"/><rect x="666.5" y="432" width="9" height="9" fill="#C9C7E0"/><rect x="702.5" y="432" width="9" height="9" fill="#C9C7E0"/><rect x="666.5" y="441" width="9" height="9" fill="#C9C7E0"/><rect x="702.5" y="441" width="9" height="9" fill="#C9C7E0"/><rect x="666.5" y="450" width="36" height="9" fill="#C9C7E0"/><rect x="720.5" y="396" width="9" height="9" fill="#C9C7E0"/><rect x="756.5" y="396" width="9" height="9" fill="#C9C7E0"/><rect x="720.5" y="405" width="9" height="9" fill="#C9C7E0"/><rect x="756.5" y="405" width="9" height="9" fill="#C9C7E0"/><rect x="729.5" y="414" width="9" height="9" fill="#C9C7E0"/><rect x="747.5" y="414" width="9" height="9" fill="#C9C7E0"/><rect x="738.5" y="423" width="9" height="9" fill="#C9C7E0"/><rect x="738.5" y="432" width="9" height="9" fill="#C9C7E0"/><rect x="738.5" y="441" width="9" height="9" fill="#C9C7E0"/><rect x="738.5" y="450" width="9" height="9" fill="#C9C7E0"/></g><linearGradient id="gu" gradientUnits="userSpaceOnUse" x1="71" y1="0" x2="929" y2="0"><stop offset="0" stop-color="#A78BFA"/><stop offset="1" stop-color="#22D3EE"/></linearGradient><g shape-rendering="crispEdges"><rect x="71" y="482" width="22" height="22" fill="url(#gu)"/><rect x="159" y="482" width="22" height="22" fill="url(#gu)"/><rect x="71" y="504" width="22" height="22" fill="url(#gu)"/><rect x="159" y="504" width="22" height="22" fill="url(#gu)"/><rect x="71" y="526" width="22" height="22" fill="url(#gu)"/><rect x="159" y="526" width="22" height="22" fill="url(#gu)"/><rect x="71" y="548" width="22" height="22" fill="url(#gu)"/><rect x="159" y="548" width="22" height="22" fill="url(#gu)"/><rect x="71" y="570" width="22" height="22" fill="url(#gu)"/><rect x="159" y="570" width="22" height="22" fill="url(#gu)"/><rect x="71" y="592" width="22" height="22" fill="url(#gu)"/><rect x="159" y="592" width="22" height="22" fill="url(#gu)"/><rect x="93" y="614" width="66" height="22" fill="url(#gu)"/><rect x="203" y="482" width="22" height="22" fill="url(#gu)"/><rect x="291" y="482" width="22" height="22" fill="url(#gu)"/><rect x="203" y="504" width="44" height="22" fill="url(#gu)"/><rect x="291" y="504" width="22" height="22" fill="url(#gu)"/><rect x="203" y="526" width="22" height="22" fill="url(#gu)"/><rect x="247" y="526" width="22" height="22" fill="url(#gu)"/><rect x="291" y="526" width="22" height="22" fill="url(#gu)"/><rect x="203" y="548" width="22" height="22" fill="url(#gu)"/><rect x="269" y="548" width="44" height="22" fill="url(#gu)"/><rect x="203" y="570" width="22" height="22" fill="url(#gu)"/><rect x="291" y="570" width="22" height="22" fill="url(#gu)"/><rect x="203" y="592" width="22" height="22" fill="url(#gu)"/><rect x="291" y="592" width="22" height="22" fill="url(#gu)"/><rect x="203" y="614" width="22" height="22" fill="url(#gu)"/><rect x="291" y="614" width="22" height="22" fill="url(#gu)"/><rect x="335" y="482" width="66" height="22" fill="url(#gu)"/><rect x="357" y="504" width="22" height="22" fill="url(#gu)"/><rect x="357" y="526" width="22" height="22" fill="url(#gu)"/><rect x="357" y="548" width="22" height="22" fill="url(#gu)"/><rect x="357" y="570" width="22" height="22" fill="url(#gu)"/><rect x="357" y="592" width="22" height="22" fill="url(#gu)"/><rect x="335" y="614" width="66" height="22" fill="url(#gu)"/><rect x="445" y="482" width="66" height="22" fill="url(#gu)"/><rect x="423" y="504" width="22" height="22" fill="url(#gu)"/><rect x="511" y="504" width="22" height="22" fill="url(#gu)"/><rect x="423" y="526" width="22" height="22" fill="url(#gu)"/><rect x="423" y="548" width="22" height="22" fill="url(#gu)"/><rect x="423" y="570" width="22" height="22" fill="url(#gu)"/><rect x="423" y="592" width="22" height="22" fill="url(#gu)"/><rect x="511" y="592" width="22" height="22" fill="url(#gu)"/><rect x="445" y="614" width="66" height="22" fill="url(#gu)"/><rect x="577" y="482" width="66" height="22" fill="url(#gu)"/><rect x="555" y="504" width="22" height="22" fill="url(#gu)"/><rect x="643" y="504" width="22" height="22" fill="url(#gu)"/><rect x="555" y="526" width="22" height="22" fill="url(#gu)"/><rect x="643" y="526" width="22" height="22" fill="url(#gu)"/><rect x="555" y="548" width="22" height="22" fill="url(#gu)"/><rect x="643" y="548" width="22" height="22" fill="url(#gu)"/><rect x="555" y="570" width="22" height="22" fill="url(#gu)"/><rect x="643" y="570" width="22" height="22" fill="url(#gu)"/><rect x="555" y="592" width="22" height="22" fill="url(#gu)"/><rect x="643" y="592" width="22" height="22" fill="url(#gu)"/><rect x="577" y="614" width="66" height="22" fill="url(#gu)"/><rect x="687" y="482" width="88" height="22" fill="url(#gu)"/><rect x="687" y="504" width="22" height="22" fill="url(#gu)"/><rect x="775" y="504" width="22" height="22" fill="url(#gu)"/><rect x="687" y="526" width="22" height="22" fill="url(#gu)"/><rect x="775" y="526" width="22" height="22" fill="url(#gu)"/><rect x="687" y="548" width="88" height="22" fill="url(#gu)"/><rect x="687" y="570" width="22" height="22" fill="url(#gu)"/><rect x="731" y="570" width="22" height="22" fill="url(#gu)"/><rect x="687" y="592" width="22" height="22" fill="url(#gu)"/><rect x="753" y="592" width="22" height="22" fill="url(#gu)"/><rect x="687" y="614" width="22" height="22" fill="url(#gu)"/><rect x="775" y="614" width="22" height="22" fill="url(#gu)"/><rect x="819" y="482" width="110" height="22" fill="url(#gu)"/><rect x="819" y="504" width="22" height="22" fill="url(#gu)"/><rect x="819" y="526" width="22" height="22" fill="url(#gu)"/><rect x="819" y="548" width="88" height="22" fill="url(#gu)"/><rect x="819" y="570" width="22" height="22" fill="url(#gu)"/><rect x="819" y="592" width="22" height="22" fill="url(#gu)"/><rect x="819" y="614" width="110" height="22" fill="url(#gu)"/></g>
<rect x="-32" y="772" width="1064" height="260" fill="url(#g)"/>
<g shape-rendering="crispEdges"><rect x="115" y="851" width="30" height="10" fill="#0B0A18"/><rect x="105" y="861" width="10" height="10" fill="#0B0A18"/><rect x="145" y="861" width="10" height="10" fill="#0B0A18"/><rect x="105" y="871" width="10" height="10" fill="#0B0A18"/><rect x="115" y="881" width="30" height="10" fill="#0B0A18"/><rect x="145" y="891" width="10" height="10" fill="#0B0A18"/><rect x="105" y="901" width="10" height="10" fill="#0B0A18"/><rect x="145" y="901" width="10" height="10" fill="#0B0A18"/><rect x="115" y="911" width="30" height="10" fill="#0B0A18"/><rect x="165" y="851" width="50" height="10" fill="#0B0A18"/><rect x="185" y="861" width="10" height="10" fill="#0B0A18"/><rect x="185" y="871" width="10" height="10" fill="#0B0A18"/><rect x="185" y="881" width="10" height="10" fill="#0B0A18"/><rect x="185" y="891" width="10" height="10" fill="#0B0A18"/><rect x="185" y="901" width="10" height="10" fill="#0B0A18"/><rect x="185" y="911" width="10" height="10" fill="#0B0A18"/><rect x="235" y="851" width="30" height="10" fill="#0B0A18"/><rect x="225" y="861" width="10" height="10" fill="#0B0A18"/><rect x="265" y="861" width="10" height="10" fill="#0B0A18"/><rect x="225" y="871" width="10" height="10" fill="#0B0A18"/><rect x="265" y="871" width="10" height="10" fill="#0B0A18"/><rect x="225" y="881" width="50" height="10" fill="#0B0A18"/><rect x="225" y="891" width="10" height="10" fill="#0B0A18"/><rect x="265" y="891" width="10" height="10" fill="#0B0A18"/><rect x="225" y="901" width="10" height="10" fill="#0B0A18"/><rect x="265" y="901" width="10" height="10" fill="#0B0A18"/><rect x="225" y="911" width="10" height="10" fill="#0B0A18"/><rect x="265" y="911" width="10" height="10" fill="#0B0A18"/><rect x="295" y="851" width="30" height="10" fill="#0B0A18"/><rect x="285" y="861" width="10" height="10" fill="#0B0A18"/><rect x="325" y="861" width="10" height="10" fill="#0B0A18"/><rect x="285" y="871" width="10" height="10" fill="#0B0A18"/><rect x="285" y="881" width="10" height="10" fill="#0B0A18"/><rect x="305" y="881" width="30" height="10" fill="#0B0A18"/><rect x="285" y="891" width="10" height="10" fill="#0B0A18"/><rect x="325" y="891" width="10" height="10" fill="#0B0A18"/><rect x="285" y="901" width="10" height="10" fill="#0B0A18"/><rect x="325" y="901" width="10" height="10" fill="#0B0A18"/><rect x="295" y="911" width="30" height="10" fill="#0B0A18"/><rect x="345" y="851" width="50" height="10" fill="#0B0A18"/><rect x="345" y="861" width="10" height="10" fill="#0B0A18"/><rect x="345" y="871" width="10" height="10" fill="#0B0A18"/><rect x="345" y="881" width="40" height="10" fill="#0B0A18"/><rect x="345" y="891" width="10" height="10" fill="#0B0A18"/><rect x="345" y="901" width="10" height="10" fill="#0B0A18"/><rect x="345" y="911" width="50" height="10" fill="#0B0A18"/><rect x="405" y="851" width="40" height="10" fill="#0B0A18"/><rect x="405" y="861" width="10" height="10" fill="#0B0A18"/><rect x="445" y="861" width="10" height="10" fill="#0B0A18"/><rect x="405" y="871" width="10" height="10" fill="#0B0A18"/><rect x="445" y="871" width="10" height="10" fill="#0B0A18"/><rect x="405" y="881" width="40" height="10" fill="#0B0A18"/><rect x="405" y="891" width="10" height="10" fill="#0B0A18"/><rect x="425" y="891" width="10" height="10" fill="#0B0A18"/><rect x="405" y="901" width="10" height="10" fill="#0B0A18"/><rect x="435" y="901" width="10" height="10" fill="#0B0A18"/><rect x="405" y="911" width="10" height="10" fill="#0B0A18"/><rect x="445" y="911" width="10" height="10" fill="#0B0A18"/><rect x="475" y="851" width="30" height="10" fill="#0B0A18"/><rect x="465" y="861" width="10" height="10" fill="#0B0A18"/><rect x="505" y="861" width="10" height="10" fill="#0B0A18"/><rect x="465" y="871" width="10" height="10" fill="#0B0A18"/><rect x="505" y="871" width="10" height="10" fill="#0B0A18"/><rect x="465" y="881" width="10" height="10" fill="#0B0A18"/><rect x="505" y="881" width="10" height="10" fill="#0B0A18"/><rect x="465" y="891" width="10" height="10" fill="#0B0A18"/><rect x="505" y="891" width="10" height="10" fill="#0B0A18"/><rect x="465" y="901" width="10" height="10" fill="#0B0A18"/><rect x="505" y="901" width="10" height="10" fill="#0B0A18"/><rect x="475" y="911" width="30" height="10" fill="#0B0A18"/><rect x="525" y="851" width="40" height="10" fill="#0B0A18"/><rect x="525" y="861" width="10" height="10" fill="#0B0A18"/><rect x="565" y="861" width="10" height="10" fill="#0B0A18"/><rect x="525" y="871" width="10" height="10" fill="#0B0A18"/><rect x="565" y="871" width="10" height="10" fill="#0B0A18"/><rect x="525" y="881" width="40" height="10" fill="#0B0A18"/><rect x="525" y="891" width="10" height="10" fill="#0B0A18"/><rect x="565" y="891" width="10" height="10" fill="#0B0A18"/><rect x="525" y="901" width="10" height="10" fill="#0B0A18"/><rect x="565" y="901" width="10" height="10" fill="#0B0A18"/><rect x="525" y="911" width="40" height="10" fill="#0B0A18"/><rect x="595" y="851" width="30" height="10" fill="#0B0A18"/><rect x="585" y="861" width="10" height="10" fill="#0B0A18"/><rect x="625" y="861" width="10" height="10" fill="#0B0A18"/><rect x="585" y="871" width="10" height="10" fill="#0B0A18"/><rect x="625" y="871" width="10" height="10" fill="#0B0A18"/><rect x="585" y="881" width="10" height="10" fill="#0B0A18"/><rect x="625" y="881" width="10" height="10" fill="#0B0A18"/><rect x="585" y="891" width="10" height="10" fill="#0B0A18"/><rect x="625" y="891" width="10" height="10" fill="#0B0A18"/><rect x="585" y="901" width="10" height="10" fill="#0B0A18"/><rect x="625" y="901" width="10" height="10" fill="#0B0A18"/><rect x="595" y="911" width="30" height="10" fill="#0B0A18"/><rect x="645" y="851" width="50" height="10" fill="#0B0A18"/><rect x="665" y="861" width="10" height="10" fill="#0B0A18"/><rect x="665" y="871" width="10" height="10" fill="#0B0A18"/><rect x="665" y="881" width="10" height="10" fill="#0B0A18"/><rect x="665" y="891" width="10" height="10" fill="#0B0A18"/><rect x="665" y="901" width="10" height="10" fill="#0B0A18"/><rect x="665" y="911" width="10" height="10" fill="#0B0A18"/><rect x="705" y="911" width="10" height="10" fill="#0B0A18"/><rect x="735" y="851" width="30" height="10" fill="#0B0A18"/><rect x="725" y="861" width="10" height="10" fill="#0B0A18"/><rect x="765" y="861" width="10" height="10" fill="#0B0A18"/><rect x="725" y="871" width="10" height="10" fill="#0B0A18"/><rect x="725" y="881" width="10" height="10" fill="#0B0A18"/><rect x="725" y="891" width="10" height="10" fill="#0B0A18"/><rect x="725" y="901" width="10" height="10" fill="#0B0A18"/><rect x="765" y="901" width="10" height="10" fill="#0B0A18"/><rect x="735" y="911" width="30" height="10" fill="#0B0A18"/><rect x="795" y="851" width="30" height="10" fill="#0B0A18"/><rect x="785" y="861" width="10" height="10" fill="#0B0A18"/><rect x="825" y="861" width="10" height="10" fill="#0B0A18"/><rect x="785" y="871" width="10" height="10" fill="#0B0A18"/><rect x="825" y="871" width="10" height="10" fill="#0B0A18"/><rect x="785" y="881" width="10" height="10" fill="#0B0A18"/><rect x="825" y="881" width="10" height="10" fill="#0B0A18"/><rect x="785" y="891" width="10" height="10" fill="#0B0A18"/><rect x="825" y="891" width="10" height="10" fill="#0B0A18"/><rect x="785" y="901" width="10" height="10" fill="#0B0A18"/><rect x="825" y="901" width="10" height="10" fill="#0B0A18"/><rect x="795" y="911" width="30" height="10" fill="#0B0A18"/><rect x="845" y="851" width="10" height="10" fill="#0B0A18"/><rect x="885" y="851" width="10" height="10" fill="#0B0A18"/><rect x="845" y="861" width="20" height="10" fill="#0B0A18"/><rect x="875" y="861" width="20" height="10" fill="#0B0A18"/><rect x="845" y="871" width="10" height="10" fill="#0B0A18"/><rect x="865" y="871" width="10" height="10" fill="#0B0A18"/><rect x="885" y="871" width="10" height="10" fill="#0B0A18"/><rect x="845" y="881" width="10" height="10" fill="#0B0A18"/><rect x="865" y="881" width="10" height="10" fill="#0B0A18"/><rect x="885" y="881" width="10" height="10" fill="#0B0A18"/><rect x="845" y="891" width="10" height="10" fill="#0B0A18"/><rect x="885" y="891" width="10" height="10" fill="#0B0A18"/><rect x="845" y="901" width="10" height="10" fill="#0B0A18"/><rect x="885" y="901" width="10" height="10" fill="#0B0A18"/><rect x="845" y="911" width="10" height="10" fill="#0B0A18"/><rect x="885" y="911" width="10" height="10" fill="#0B0A18"/></g>
</svg>