<svg xmlns="http://www.w3.org/2000/svg" viewBox="-5 -20 170 170" shape-rendering="crispEdges"><rect x="-5" y="-20" width="170" height="170" rx="34" fill="#0B0A18"/><rect x="70" y="0" width="20" height="10" fill="#FF1E3C"/><rect x="70" y="10" width="20" height="10" fill="#8F91AB"/><rect x="70" y="20" width="20" height="10" fill="#8F91AB"/><rect x="20" y="30" width="120" height="10" fill="#14122B"/><rect x="20" y="40" width="10" height="10" fill="#14122B"/><rect x="30" y="40" width="90" height="10" fill="#D4D5E6"/><rect x="120" y="40" width="10" height="10" fill="#8F91AB"/><rect x="130" y="40" width="10" height="10" fill="#14122B"/><rect x="20" y="50" width="10" height="10" fill="#14122B"/><rect x="30" y="50" width="10" height="10" fill="#D4D5E6"/><rect x="40" y="50" width="80" height="10" fill="#0B0A18"/><rect x="120" y="50" width="10" height="10" fill="#8F91AB"/><rect x="130" y="50" width="10" height="10" fill="#14122B"/><rect x="10" y="60" width="10" height="10" fill="#8F91AB"/><rect x="20" y="60" width="10" height="10" fill="#14122B"/><rect x="30" y="60" width="10" height="10" fill="#D4D5E6"/><rect x="40" y="60" width="10" height="10" fill="#0B0A18"/><rect x="50" y="60" width="10" height="10" fill="#FF9AA8"/><rect x="60" y="60" width="10" height="10" fill="#FF1E3C"/><rect x="70" y="60" width="20" height="10" fill="#0B0A18"/><rect x="90" y="60" width="10" height="10" fill="#FF9AA8"/><rect x="100" y="60" width="10" height="10" fill="#FF1E3C"/><rect x="110" y="60" width="10" height="10" fill="#0B0A18"/><rect x="120" y="60" width="10" height="10" fill="#8F91AB"/><rect x="130" y="60" width="10" height="10" fill="#14122B"/><rect x="140" y="60" width="10" height="10" fill="#8F91AB"/><rect x="10" y="70" width="10" height="10" fill="#8F91AB"/><rect x="20" y="70" width="10" height="10" fill="#14122B"/><rect x="30" y="70" width="10" height="10" fill="#D4D5E6"/><rect x="40" y="70" width="10" height="10" fill="#0B0A18"/><rect x="50" y="70" width="20" height="10" fill="#FF1E3C"/><rect x="70" y="70" width="20" height="10" fill="#0B0A18"/><rect x="90" y="70" width="20" height="10" fill="#FF1E3C"/><rect x="110" y="70" width="10" height="10" fill="#0B0A18"/><rect x="120" y="70" width="10" height="10" fill="#8F91AB"/><rect x="130" y="70" width="10" height="10" fill="#14122B"/><rect x="140" y="70" width="10" height="10" fill="#8F91AB"/><rect x="20" y="80" width="10" height="10" fill="#14122B"/><rect x="30" y="80" width="10" height="10" fill="#D4D5E6"/><rect x="40" y="80" width="80" height="10" fill="#0B0A18"/><rect x="120" y="80" width="10" height="10" fill="#8F91AB"/><rect x="130" y="80" width="10" height="10" fill="#14122B"/><rect x="20" y="90" width="10" height="10" fill="#14122B"/><rect x="30" y="90" width="90" height="10" fill="#D4D5E6"/><rect x="120" y="90" width="10" height="10" fill="#8F91AB"/><rect x="130" y="90" width="10" height="10" fill="#14122B"/><rect x="20" y="100" width="10" height="10" fill="#14122B"/><rect x="30" y="100" width="20" height="10" fill="#D4D5E6"/><rect x="50" y="100" width="10" height="10" fill="#14122B"/><rect x="60" y="100" width="10" height="10" fill="#D4D5E6"/><rect x="70" y="100" width="10" height="10" fill="#14122B"/><rect x="80" y="100" width="10" height="10" fill="#D4D5E6"/><rect x="90" y="100" width="10" height="10" fill="#14122B"/><rect x="100" y="100" width="20" height="10" fill="#D4D5E6"/><rect x="120" y="100" width="10" height="10" fill="#8F91AB"/><rect x="130" y="100" width="10" height="10" fill="#14122B"/><rect x="20" y="110" width="10" height="10" fill="#14122B"/><rect x="30" y="110" width="100" height="10" fill="#8F91AB"/><rect x="130" y="110" width="10" height="10" fill="#14122B"/><rect x="20" y="120" width="120" height="10" fill="#14122B"/></svg>