<svg xmlns="http://www.w3.org/2000/svg" viewBox="0 0 160 160" shape-rendering="crispEdges" role="img" aria-label="Alan Smithee, approximately"><rect width="160" height="160" fill="#1E1B33"/><rect x="40" y="0" width="80" height="10" fill="#2A2438"/><rect x="40" y="10" width="10" height="10" fill="#2A2438"/><rect x="50" y="10" width="60" height="10" fill="#4A3F5C"/><rect x="110" y="10" width="10" height="10" fill="#2A2438"/><rect x="20" y="20" width="120" height="10" fill="#2A2438"/><rect x="20" y="30" width="120" height="10" fill="#2A2438"/><rect x="40" y="40" width="80" height="10" fill="#E8B894"/><rect x="30" y="50" width="100" height="10" fill="#E8B894"/><rect x="30" y="60" width="100" height="10" fill="#1E1B33"/><rect x="30" y="70" width="10" height="10" fill="#E8B894"/><rect x="40" y="70" width="30" height="10" fill="#1E1B33"/><rect x="70" y="70" width="20" height="10" fill="#E8B894"/><rect x="90" y="70" width="30" height="10" fill="#1E1B33"/><rect x="120" y="70" width="10" height="10" fill="#E8B894"/><rect x="30" y="80" width="100" height="10" fill="#E8B894"/><rect x="30" y="90" width="40" height="10" fill="#E8B894"/><rect x="70" y="90" width="20" height="10" fill="#C98E6A"/><rect x="90" y="90" width="40" height="10" fill="#E8B894"/><rect x="40" y="100" width="80" height="10" fill="#E8B894"/><rect x="50" y="110" width="10" height="10" fill="#E8B894"/><rect x="60" y="110" width="30" height="10" fill="#C98E6A"/><rect x="90" y="110" width="20" height="10" fill="#E8B894"/><rect x="60" y="120" width="40" height="10" fill="#E8B894"/><rect x="30" y="130" width="30" height="10" fill="#2A2438"/><rect x="60" y="130" width="40" height="10" fill="#F4F4FA"/><rect x="100" y="130" width="30" height="10" fill="#2A2438"/><rect x="20" y="140" width="50" height="10" fill="#2A2438"/><rect x="70" y="140" width="20" height="10" fill="#F4F4FA"/><rect x="90" y="140" width="50" height="10" fill="#2A2438"/><rect x="10" y="150" width="60" height="10" fill="#2A2438"/><rect x="70" y="150" width="20" height="10" fill="#F4F4FA"/><rect x="90" y="150" width="60" height="10" fill="#2A2438"/></svg>