<svg xmlns="http://www.w3.org/2000/svg" viewBox="0 0 160 160" shape-rendering="crispEdges" role="img" aria-label="[TEAM MEMBER 3 — IMAGE PENDING]"><rect width="160" height="160" fill="#101826"/><rect x="60" y="10" width="40" height="10" fill="#22D3EE"/><rect x="40" y="20" width="20" height="10" fill="#22D3EE"/><rect x="100" y="20" width="20" height="10" fill="#22D3EE"/><rect x="30" y="30" width="10" height="10" fill="#22D3EE"/><rect x="120" y="30" width="10" height="10" fill="#22D3EE"/><rect x="30" y="40" width="10" height="10" fill="#22D3EE"/><rect x="60" y="40" width="10" height="10" fill="#22D3EE"/><rect x="90" y="40" width="10" height="10" fill="#22D3EE"/><rect x="120" y="40" width="10" height="10" fill="#22D3EE"/><rect x="30" y="50" width="10" height="10" fill="#22D3EE"/><rect x="120" y="50" width="10" height="10" fill="#22D3EE"/><rect x="30" y="60" width="10" height="10" fill="#22D3EE"/><rect x="60" y="60" width="40" height="10" fill="#22D3EE"/><rect x="120" y="60" width="10" height="10" fill="#22D3EE"/><rect x="40" y="70" width="10" height="10" fill="#22D3EE"/><rect x="110" y="70" width="10" height="10" fill="#22D3EE"/><rect x="50" y="80" width="60" height="10" fill="#22D3EE"/><rect x="30" y="100" width="10" height="10" fill="#22D3EE"/><rect x="50" y="100" width="10" height="10" fill="#22D3EE"/><rect x="70" y="100" width="10" height="10" fill="#22D3EE"/><rect x="90" y="100" width="10" height="10" fill="#22D3EE"/><rect x="110" y="100" width="10" height="10" fill="#22D3EE"/><rect x="130" y="100" width="10" height="10" fill="#22D3EE"/><rect x="20" y="110" width="10" height="10" fill="#22D3EE"/><rect x="140" y="110" width="10" height="10" fill="#22D3EE"/><rect x="10" y="130" width="10" height="10" fill="#22D3EE"/><rect x="150" y="130" width="10" height="10" fill="#22D3EE"/><rect x="0" y="150" width="10" height="10" fill="#22D3EE"/><rect x="20" y="150" width="10" height="10" fill="#22D3EE"/><rect x="40" y="150" width="10" height="10" fill="#22D3EE"/><rect x="60" y="150" width="10" height="10" fill="#22D3EE"/><rect x="80" y="150" width="10" height="10" fill="#22D3EE"/><rect x="100" y="150" width="10" height="10" fill="#22D3EE"/><rect x="120" y="150" width="10" height="10" fill="#22D3EE"/><rect x="140" y="150" width="10" height="10" fill="#22D3EE"/></svg>