<svg xmlns="http://www.w3.org/2000/svg" viewBox="0 0 240 240" class="" shape-rendering="crispEdges" role="img" aria-label="StageRobot pixel robot holding comedy and tragedy masks"><defs><filter id="lmw-glow" x="-50%" y="-50%" width="200%" height="200%"><feGaussianBlur stdDeviation="9"/></filter></defs><g class="sr-body"><rect x="70" y="10" width="20" height="10" fill="#F4F3FF"/><rect x="70" y="20" width="20" height="10" fill="#F4F3FF"/><rect x="20" y="30" width="120" height="10" fill="#F4F3FF"/><rect x="160" y="30" width="40" height="10" fill="#F4F3FF"/><rect x="20" y="40" width="10" height="10" fill="#F4F3FF"/><rect x="30" y="40" width="90" height="10" fill="#F4F3FF"/><rect x="120" y="40" width="10" height="10" fill="#F4F3FF"/><rect x="130" y="40" width="10" height="10" fill="#F4F3FF"/><rect x="150" y="40" width="60" height="10" fill="#F4F3FF"/><rect x="20" y="50" width="10" height="10" fill="#F4F3FF"/><rect x="30" y="50" width="10" height="10" fill="#F4F3FF"/><rect x="40" y="50" width="80" height="10" fill="#F4F3FF"/><rect x="120" y="50" width="10" height="10" fill="#F4F3FF"/><rect x="130" y="50" width="10" height="10" fill="#F4F3FF"/><rect x="150" y="50" width="10" height="10" fill="#F4F3FF"/><rect x="160" y="50" width="10" height="10" fill="#F4F3FF"/><rect x="170" y="50" width="20" height="10" fill="#F4F3FF"/><rect x="190" y="50" width="10" height="10" fill="#F4F3FF"/><rect x="200" y="50" width="10" height="10" fill="#F4F3FF"/><rect x="10" y="60" width="10" height="10" fill="#F4F3FF"/><rect x="20" y="60" width="10" height="10" fill="#F4F3FF"/><rect x="30" y="60" width="10" height="10" fill="#F4F3FF"/><rect x="40" y="60" width="10" height="10" fill="#F4F3FF"/><rect x="70" y="60" width="20" height="10" fill="#F4F3FF"/><rect x="110" y="60" width="10" height="10" fill="#F4F3FF"/><rect x="120" y="60" width="10" height="10" fill="#F4F3FF"/><rect x="130" y="60" width="10" height="10" fill="#F4F3FF"/><rect x="140" y="60" width="10" height="10" fill="#F4F3FF"/><rect x="150" y="60" width="60" height="10" fill="#F4F3FF"/><rect x="210" y="60" width="20" height="10" fill="#F4F3FF"/><rect x="10" y="70" width="10" height="10" fill="#F4F3FF"/><rect x="20" y="70" width="10" height="10" fill="#F4F3FF"/><rect x="30" y="70" width="10" height="10" fill="#F4F3FF"/><rect x="40" y="70" width="10" height="10" fill="#F4F3FF"/><rect x="70" y="70" width="20" height="10" fill="#F4F3FF"/><rect x="110" y="70" width="10" height="10" fill="#F4F3FF"/><rect x="120" y="70" width="10" height="10" fill="#F4F3FF"/><rect x="130" y="70" width="10" height="10" fill="#F4F3FF"/><rect x="140" y="70" width="10" height="10" fill="#F4F3FF"/><rect x="150" y="70" width="10" height="10" fill="#F4F3FF"/><rect x="160" y="70" width="40" height="10" fill="#F4F3FF"/><rect x="200" y="70" width="10" height="10" fill="#F4F3FF"/><rect x="210" y="70" width="30" height="10" fill="#F4F3FF"/><rect x="20" y="80" width="10" height="10" fill="#F4F3FF"/><rect x="30" y="80" width="10" height="10" fill="#F4F3FF"/><rect x="40" y="80" width="80" height="10" fill="#F4F3FF"/><rect x="120" y="80" width="10" height="10" fill="#F4F3FF"/><rect x="130" y="80" width="10" height="10" fill="#F4F3FF"/><rect x="150" y="80" width="10" height="10" fill="#F4F3FF"/><rect x="160" y="80" width="40" height="10" fill="#F4F3FF"/><rect x="200" y="80" width="10" height="10" fill="#F4F3FF"/><rect x="210" y="80" width="10" height="10" fill="#F4F3FF"/><rect x="220" y="80" width="10" height="10" fill="#F4F3FF"/><rect x="230" y="80" width="10" height="10" fill="#F4F3FF"/><rect x="20" y="90" width="10" height="10" fill="#F4F3FF"/><rect x="30" y="90" width="90" height="10" fill="#F4F3FF"/><rect x="120" y="90" width="10" height="10" fill="#F4F3FF"/><rect x="130" y="90" width="10" height="10" fill="#F4F3FF"/><rect x="160" y="90" width="40" height="10" fill="#F4F3FF"/><rect x="200" y="90" width="40" height="10" fill="#F4F3FF"/><rect x="20" y="100" width="10" height="10" fill="#F4F3FF"/><rect x="30" y="100" width="20" height="10" fill="#F4F3FF"/><rect x="50" y="100" width="10" height="10" fill="#F4F3FF"/><rect x="60" y="100" width="10" height="10" fill="#F4F3FF"/><rect x="70" y="100" width="10" height="10" fill="#F4F3FF"/><rect x="80" y="100" width="10" height="10" fill="#F4F3FF"/><rect x="90" y="100" width="10" height="10" fill="#F4F3FF"/><rect x="100" y="100" width="20" height="10" fill="#F4F3FF"/><rect x="120" y="100" width="10" height="10" fill="#F4F3FF"/><rect x="130" y="100" width="10" height="10" fill="#F4F3FF"/><rect x="150" y="100" width="20" height="10" fill="#F4F3FF"/><rect x="180" y="100" width="20" height="10" fill="#F4F3FF"/><rect x="200" y="100" width="20" height="10" fill="#F4F3FF"/><rect x="220" y="100" width="20" height="10" fill="#F4F3FF"/><rect x="20" y="110" width="10" height="10" fill="#F4F3FF"/><rect x="30" y="110" width="100" height="10" fill="#F4F3FF"/><rect x="130" y="110" width="10" height="10" fill="#F4F3FF"/><rect x="150" y="110" width="20" height="10" fill="#F4F3FF"/><rect x="180" y="110" width="10" height="10" fill="#F4F3FF"/><rect x="190" y="110" width="10" height="10" fill="#F4F3FF"/><rect x="200" y="110" width="20" height="10" fill="#F4F3FF"/><rect x="220" y="110" width="10" height="10" fill="#F4F3FF"/><rect x="230" y="110" width="10" height="10" fill="#F4F3FF"/><rect x="20" y="120" width="120" height="10" fill="#F4F3FF"/><rect x="150" y="120" width="20" height="10" fill="#F4F3FF"/><rect x="190" y="120" width="40" height="10" fill="#F4F3FF"/><rect x="60" y="130" width="40" height="10" fill="#F4F3FF"/><rect x="150" y="130" width="20" height="10" fill="#F4F3FF"/><rect x="10" y="140" width="140" height="10" fill="#F4F3FF"/><rect x="150" y="140" width="20" height="10" fill="#F4F3FF"/><rect x="0" y="150" width="10" height="10" fill="#F4F3FF"/><rect x="10" y="150" width="10" height="10" fill="#F4F3FF"/><rect x="20" y="150" width="110" height="10" fill="#F4F3FF"/><rect x="130" y="150" width="10" height="10" fill="#F4F3FF"/><rect x="140" y="150" width="10" height="10" fill="#F4F3FF"/><rect x="150" y="150" width="10" height="10" fill="#F4F3FF"/><rect x="0" y="160" width="10" height="10" fill="#F4F3FF"/><rect x="10" y="160" width="10" height="10" fill="#F4F3FF"/><rect x="20" y="160" width="10" height="10" fill="#F4F3FF"/><rect x="30" y="160" width="60" height="10" fill="#F4F3FF"/><rect x="90" y="160" width="40" height="10" fill="#F4F3FF"/><rect x="130" y="160" width="10" height="10" fill="#F4F3FF"/><rect x="140" y="160" width="10" height="10" fill="#F4F3FF"/><rect x="0" y="170" width="10" height="10" fill="#F4F3FF"/><rect x="10" y="170" width="10" height="10" fill="#F4F3FF"/><rect x="20" y="170" width="10" height="10" fill="#F4F3FF"/><rect x="30" y="170" width="10" height="10" fill="#F4F3FF"/><rect x="40" y="170" width="10" height="10" fill="#F4F3FF"/><rect x="50" y="170" width="10" height="10" fill="#F4F3FF"/><rect x="60" y="170" width="10" height="10" fill="#F4F3FF"/><rect x="70" y="170" width="10" height="10" fill="#F4F3FF"/><rect x="80" y="170" width="10" height="10" fill="#F4F3FF"/><rect x="90" y="170" width="10" height="10" fill="#F4F3FF"/><rect x="120" y="170" width="10" height="10" fill="#F4F3FF"/><rect x="130" y="170" width="10" height="10" fill="#F4F3FF"/><rect x="140" y="170" width="10" height="10" fill="#F4F3FF"/><rect x="0" y="180" width="10" height="10" fill="#F4F3FF"/><rect x="10" y="180" width="10" height="10" fill="#F4F3FF"/><rect x="20" y="180" width="10" height="10" fill="#F4F3FF"/><rect x="30" y="180" width="60" height="10" fill="#F4F3FF"/><rect x="90" y="180" width="10" height="10" fill="#F4F3FF"/><rect x="120" y="180" width="10" height="10" fill="#F4F3FF"/><rect x="130" y="180" width="10" height="10" fill="#F4F3FF"/><rect x="140" y="180" width="10" height="10" fill="#F4F3FF"/><rect x="10" y="190" width="10" height="10" fill="#F4F3FF"/><rect x="20" y="190" width="110" height="10" fill="#F4F3FF"/><rect x="130" y="190" width="10" height="10" fill="#F4F3FF"/><rect x="140" y="190" width="10" height="10" fill="#F4F3FF"/><rect x="10" y="200" width="10" height="10" fill="#F4F3FF"/><rect x="20" y="200" width="120" height="10" fill="#F4F3FF"/><rect x="140" y="200" width="10" height="10" fill="#F4F3FF"/><rect x="10" y="210" width="140" height="10" fill="#F4F3FF"/><rect x="30" y="220" width="30" height="10" fill="#F4F3FF"/><rect x="100" y="220" width="30" height="10" fill="#F4F3FF"/><rect x="20" y="230" width="40" height="10" fill="#F4F3FF"/><rect x="90" y="230" width="40" height="10" fill="#F4F3FF"/></g><g class="sr-bulb"><rect x="70" y="0" width="20" height="10" fill="#FF1E3C"/><rect x="100" y="170" width="20" height="10" fill="#FF1E3C"/><rect x="100" y="180" width="20" height="10" fill="#FF1E3C"/></g><g class="sr-eyes-wrap"><g class="sr-glow" filter="url(#lmw-glow)" opacity=".85"><rect x="50" y="60" width="10" height="10" fill="#FF1E3C"/><rect x="60" y="60" width="10" height="10" fill="#FF1E3C"/><rect x="90" y="60" width="10" height="10" fill="#FF1E3C"/><rect x="100" y="60" width="10" height="10" fill="#FF1E3C"/><rect x="50" y="70" width="20" height="10" fill="#FF1E3C"/><rect x="90" y="70" width="20" height="10" fill="#FF1E3C"/></g><g class="sr-eyes"><rect x="50" y="60" width="10" height="10" fill="#FF9AA8"/><rect x="60" y="60" width="10" height="10" fill="#FF1E3C"/><rect x="90" y="60" width="10" height="10" fill="#FF9AA8"/><rect x="100" y="60" width="10" height="10" fill="#FF1E3C"/><rect x="50" y="70" width="20" height="10" fill="#FF1E3C"/><rect x="90" y="70" width="20" height="10" fill="#FF1E3C"/></g></g></svg>